<svg id="visual" viewBox="0 0 900 900" width="900" height="900" xmlns="http://www.w3.org/2000/svg" xmlns:xlink="http://www.w3.org/1999/xlink" version="1.1"><rect width="900" height="900" fill="#1C82AD"></rect><g><g transform="translate(713 648)"><path d="M161.4 -205.9C197.5 -162.1 207 -100.1 187.6 -55.9C168.2 -11.6 120 14.9 89.7 37.1C59.4 59.4 47 77.3 21.3 108.1C-4.3 138.9 -43.3 182.6 -88.8 189.6C-134.3 196.7 -186.3 167.1 -201.2 124.4C-216.1 81.6 -193.9 25.7 -185.3 -34.4C-176.8 -94.4 -181.8 -158.5 -153.2 -203.7C-124.5 -248.8 -62.3 -275 0.2 -275.3C62.7 -275.5 125.3 -249.8 161.4 -205.9Z" fill="none" stroke="#FBFFDC" stroke-width="25"></path></g><g transform="translate(436 91)"><path d="M91.3 -92.3C130.2 -76.2 181.7 -58.7 207.6 -20.5C233.5 17.6 233.7 76.3 208.6 121C183.5 165.7 133 196.4 88.5 189.1C44 181.7 5.4 136.5 -40.8 117.4C-87.1 98.3 -141 105.4 -179.9 82.4C-218.9 59.3 -242.9 6.1 -224.3 -29.1C-205.7 -64.4 -144.4 -81.7 -99.9 -96.9C-55.4 -112.1 -27.7 -125 -0.8 -124.1C26.2 -123.3 52.4 -108.5 91.3 -92.3Z" fill="none" stroke="#FBFFDC" stroke-width="25"></path></g><g transform="translate(50 893)"><path d="M94.1 -132C111.1 -97.8 106.5 -57.9 105.1 -24.6C103.7 8.6 105.5 35.3 99.7 69C93.9 102.7 80.5 143.5 47.9 173.7C15.3 203.8 -36.5 223.3 -72.2 206.7C-108 190.1 -127.6 137.6 -154.2 89.8C-180.8 42.1 -214.3 -0.8 -215.2 -45.2C-216 -89.7 -184.2 -135.7 -142.9 -165.6C-101.6 -195.4 -50.8 -209.2 -6.1 -201.9C38.5 -194.6 77.1 -166.2 94.1 -132Z" stroke="#FBFFDC" fill="none" stroke-width="25"></path></g></g></svg>